o Button
v 0.7 0.1 0.05
v -0.7 0.1 0.05
v 0 0.1 0.5
v 0.9 0 0
v -0.9 0 0
v 0 0 0.6
vt 0.785 0.215
vt 0.215 0.215
vt 0.5 0.5
vt 0.835 0.165
vt 0.165 0.165
vt 0 0
vn 0 1 0
vn 0 0.447213595499958 -0.894427190999916
vn 0 0.447213595499958 -0.894427190999916
vn 0.426401432711221 0.639602149066831 0.639602149066831
vn 0.455842305838552 0.56980288229819 0.683763458757828
vn 0.451129236405377 0.551380177828794 0.70175658996392
vn 0.413820440884533 0.643720685820384 0.643720685820384
vn -0.455842305838552 0.56980288229819 0.683763458757828
vn -0.426401432711221 0.639602149066831 0.639602149066831
vn -0.413820440884533 0.643720685820384 0.643720685820384
vn -0.451129236405377 0.551380177828794 0.70175658996392
g Button
f 1/1/1 2/2/1 3/3/1
f 4/4/2 5/5/2 2/2/3 1/1/3
f 6/6/4 4/6/5 1/6/6 3/6/7
f 5/6/8 6/6/9 3/6/10 2/6/11
#h 
