o Button
v 0.7 0 0.05
v -0.7 0 0.05
v -1 0 -0.025
v 1 0 -0.025
v 0 0 0.5
v 0 0 0.65
vt 0.785 0.215
vt 0.215 0.215
vt 0.165 0.165
vt 0.835 0.165
vt 0 0
vn 0 -0.447213595499958 0.894427190999916
vn -0.413820440884533 -0.643720685820384 -0.643720685820384
vn -0.451129236405377 -0.551380177828794 -0.70175658996392
vn -0.455842305838552 -0.56980288229819 -0.683763458757828
vn -0.426401432711221 -0.639602149066831 -0.639602149066831
vn 0.451129236405377 -0.551380177828794 -0.70175658996392
vn 0.413820440884533 -0.643720685820384 -0.643720685820384
vn 0.426401432711221 -0.639602149066831 -0.639602149066831
vn 0.455842305838552 -0.56980288229819 -0.683763458757828
vn 0 -1 0
g Button
f 1/1/1 2/2/1 3/3/1 4/4/1
f 5/5/2 1/5/3 4/5/4 6/5/5
f 2/5/6 5/5/7 6/5/8 3/5/9
f 2/5/10 1/5/10 5/5/10
#h 
